<svg viewBox="0 0 395.52 70.2888386381765" height="70.2888386381765" width="395.52" data-background-color="#ffffff" preserveAspectRatio="xMidYMid meet" id="tight-bounds" xmlns="http://www.w3.org/2000/svg" xmlns:xlink="http://www.w3.org/1999/xlink"><g><svg viewBox="0 0 477.45716279029784 84.85009474112262" height="70.2888386381765" width="395.52"><g transform="matrix(1,0,0,1,81.93716279029783,7.9325780860515565)"><svg viewBox="0 0 395.52 68.9849385690195" height="68.9849385690195" width="395.52"><g id="textblocktransform"><svg viewBox="0 0 395.52 68.9849385690195" height="68.9849385690195" width="395.52" id="textblock"><g><svg viewBox="0 0 395.52 68.9849385690195" height="68.9849385690195" width="395.52"><g transform="matrix(1,0,0,1,0,0)"><svg width="395.52" viewBox="1 -35.599998474121094 207.52999877929688 36.19999694824219" height="68.9849385690195" data-palette-color="#ea3a36"><path d="M21.4-14.1L21.4-14.1Q21.95-13.2 21.95-10.53 21.95-7.85 20.85-6L20.85-6Q19.85-4.55 16.6-1.98 13.35 0.6 11.8 0.6L11.8 0.6Q9.05 0.6 5.5-2.27 1.95-5.15 1-8.6L1-8.6 6.55-12.4Q7.35-10.05 9.1-8.1 10.85-6.15 11.58-6.15 12.3-6.15 13.13-6.63 13.95-7.1 14.4-7.6L14.4-7.6Q15.05-8.4 15.05-10.1 15.05-11.8 14.25-12.2L14.25-12.2Q13.25-13.05 10.38-14.45 7.5-15.85 5.05-17.48 2.6-19.1 1.93-20.65 1.25-22.2 1.25-24.68 1.25-27.15 2.35-29L2.35-29Q3.35-30.45 6.6-33.02 9.85-35.6 11.4-35.6L11.4-35.6Q14.15-35.6 17.7-32.73 21.25-29.85 22.2-26.4L22.2-26.4 16.65-22.55Q15.85-24.9 14.1-26.88 12.35-28.85 11.63-28.85 10.9-28.85 10.05-28.4 9.2-27.95 8.68-27.28 8.15-26.6 8.15-24.98 8.15-23.35 9.15-22.8L9.15-22.8Q9.95-22.1 12.8-20.6L12.8-20.6Q20.1-16.6 21.4-14.1ZM32.9 0L26 0 26-35 32.9-35 32.9 0ZM36.3-35L56.2-35 56.2-29 49.7-29 49.7 0 42.8 0 42.8-29 36.3-29 36.3-35ZM66.19-28.2L66.19-21.3 75.14-21.3 75.14-15.25 66.19-15.25 66.19-6.05 78.14-6.05 78.14 0 59.29 0 59.29-30.8 66.19-35.6 77.34-35.6 77.34-29.5 68.04-29.5 66.19-28.2ZM113.29-14.1L113.29-14.1Q113.84-13.2 113.84-10.53 113.84-7.85 112.74-6L112.74-6Q111.74-4.55 108.49-1.98 105.24 0.6 103.69 0.6L103.69 0.6Q100.94 0.6 97.39-2.27 93.84-5.15 92.89-8.6L92.89-8.6 98.44-12.4Q99.24-10.05 100.99-8.1 102.74-6.15 103.46-6.15 104.19-6.15 105.01-6.63 105.84-7.1 106.29-7.6L106.29-7.6Q106.94-8.4 106.94-10.1 106.94-11.8 106.14-12.2L106.14-12.2Q105.14-13.05 102.26-14.45 99.39-15.85 96.94-17.48 94.49-19.1 93.81-20.65 93.14-22.2 93.14-24.68 93.14-27.15 94.24-29L94.24-29Q95.24-30.45 98.49-33.02 101.74-35.6 103.29-35.6L103.29-35.6Q106.04-35.6 109.59-32.73 113.14-29.85 114.09-26.4L114.09-26.4 108.54-22.55Q107.74-24.9 105.99-26.88 104.24-28.85 103.51-28.85 102.79-28.85 101.94-28.4 101.09-27.95 100.56-27.28 100.04-26.6 100.04-24.98 100.04-23.35 101.04-22.8L101.04-22.8Q101.84-22.1 104.69-20.6L104.69-20.6Q111.99-16.6 113.29-14.1ZM115.69-35L135.59-35 135.59-29 129.09-29 129.09 0 122.19 0 122.19-29 115.69-29 115.69-35ZM142.88-32.35Q146.43-35.6 148.28-35.6 150.13-35.6 153.68-32.35 157.23-29.1 158.08-27L158.08-27Q158.63-25.55 158.63-20.45L158.63-20.45 158.63 0 151.73 0 151.73-7.5 144.83-7.5 144.83 0 137.93 0 137.93-20.45Q137.93-25.55 138.48-27L138.48-27Q139.33-29.1 142.88-32.35ZM144.83-20.45L144.83-20.45 144.83-13.5 151.73-13.5 151.73-20.45Q151.73-24.55 151.33-25.48 150.93-26.4 149.96-27.43 148.98-28.45 148.28-28.45 147.58-28.45 146.61-27.43 145.63-26.4 145.23-25.48 144.83-24.55 144.83-20.45ZM182.53-14.1L182.53-14.1Q183.08-13.2 183.08-10.53 183.08-7.85 181.98-6L181.98-6Q180.98-4.55 177.73-1.98 174.48 0.6 172.93 0.6L172.93 0.6Q170.18 0.6 166.63-2.27 163.08-5.15 162.13-8.6L162.13-8.6 167.68-12.4Q168.48-10.05 170.23-8.1 171.98-6.15 172.71-6.15 173.43-6.15 174.26-6.63 175.08-7.1 175.53-7.6L175.53-7.6Q176.18-8.4 176.18-10.1 176.18-11.8 175.38-12.2L175.38-12.2Q174.38-13.05 171.51-14.45 168.63-15.85 166.18-17.48 163.73-19.1 163.06-20.65 162.38-22.2 162.38-24.68 162.38-27.15 163.48-29L163.48-29Q164.48-30.45 167.73-33.02 170.98-35.6 172.53-35.6L172.53-35.6Q175.28-35.6 178.83-32.73 182.38-29.85 183.33-26.4L183.33-26.4 177.78-22.55Q176.98-24.9 175.23-26.88 173.48-28.85 172.76-28.85 172.03-28.85 171.18-28.4 170.33-27.95 169.81-27.28 169.28-26.6 169.28-24.98 169.28-23.35 170.28-22.8L170.28-22.8Q171.08-22.1 173.93-20.6L173.93-20.6Q181.23-16.6 182.53-14.1ZM208.53 0L201.63 0 201.63-16 194.73-16 194.73 0 187.83 0 187.83-21.4Q187.83-25.65 187.25-27.33 186.68-29 184.83-31.4L184.83-31.4 190.83-35.6Q192.43-34.55 193.58-31.73 194.73-28.9 194.73-24.9L194.73-24.9 194.73-22 201.63-22 201.63-35 208.53-35 208.53 0Z" opacity="1" transform="matrix(1,0,0,1,0,0)" fill="#ea3a36" class="wordmark-text-0" data-fill-palette-color="primary" id="text-0"></path></svg></g></svg></g></svg></g></svg></g><g><svg viewBox="0 0 65.65147443267799 84.85009474112262" height="84.85009474112262" width="65.65147443267799"><g><svg xmlns="http://www.w3.org/2000/svg" xml:space="preserve" viewBox="11.452898979187012 0.1831979900598526 77.0932388305664 99.63780212402344" x="0" y="0" height="84.85009474112262" width="65.65147443267799" class="icon-icon-0" data-fill-palette-color="accent" id="icon-0"><path d="M82.511 27.412a19 19 0 0 0-0.542-1.396c-0.309-1.83-1.747-5.274-1.766-5.313l-0.298-0.659c-0.651-1.429-1.391-3.047-1.525-4.437-0.104-1.073 1.284-6.627 1.951-9.297 1.232-4.926 1.362-5.439-0.14-5.982a1.7 1.7 0 0 0-0.695-0.087l-0.009-0.002c-1.432-0.309-2.96 0.686-5.537 2.471-0.451 0.312-1.042 0.721-1.599 1.081 0.194-0.91 0.166-2.092-0.995-3.021-1.473-1.179-3.561 0.025-6.72 1.851-0.885 0.512-2.206 1.277-3.088 1.671-0.698-1.148-1.984-2.393-4.411-1.901-1.373 0.278-2.967 1.482-5.24 3.29a56 56 0 0 1-2.006 1.543c-0.01-0.414-0.058-0.866-0.225-1.31-0.799-2.107-2.104-2.776-3.059-2.966-3.087-0.618-6.411 2.896-9.074 5.721-0.167 0.178-0.341 0.361-0.512 0.541-0.771-1.276-1.738-2.592-3.159-2.841-1.37-0.249-7.019 1.107-12.253 5.707-4.985 4.38-10.784 12.835-10.101 28.248 0.189 4.247 2.483 41.865 24.748 55.107 4.921 2.929 10.396 4.39 16.39 4.39 7.176 0 15.095-2.097 23.695-6.287 23.097-11.256 6.353-65.581 6.17-66.122M74.902 90.58c-14.725 7.176-27.163 7.86-36.969 2.026C17.15 80.245 14.969 44.241 14.789 40.177c-0.458-10.333 2.045-18.458 7.441-24.148 4.628-4.88 9.882-6.251 11.043-6.399 0.393 0.325 1.019 1.403 1.331 1.942 0.274 0.472 0.511 0.881 0.757 1.21a1.64 1.64 0 0 0 2.241 0.371c0.604-0.413 1.324-1.176 2.319-2.233 1.294-1.372 4.726-5.016 6.044-4.754 0.19 0.039 0.432 0.387 0.624 0.891 0.027 0.109 0.021 0.439 0.016 0.656-0.017 0.818-0.049 2.342 1.308 3.141 1.58 0.931 3.349-0.477 6.025-2.604 1.178-0.935 3.147-2.5 3.851-2.642 0.6-0.123 0.779-0.16 1.327 1.18 0.203 0.495 0.633 0.86 1.155 0.979 1.377 0.316 3.096-0.622 6.008-2.305 0.714-0.414 1.725-0.997 2.535-1.404-0.262 0.765-0.496 1.825 0.147 2.846 0.317 0.499 0.812 0.84 1.398 0.959 1.408 0.289 2.915-0.695 5.456-2.454a59 59 0 0 1 1.631-1.101c-0.099 0.398-0.201 0.809-0.302 1.206-1.284 5.138-2.182 8.893-2.034 10.411 0.077 0.792 0.268 1.578 0.518 2.342-1.675-1.002-3.583-1.524-5.677-1.222-1.18 0.17-2.325 0.668-3.379 1.452-1.541-1.364-3.285-2.314-5.158-2.481-4.594-0.411-10.566-0.412-14.952 1.486-1.987-1.58-4.941-1.796-8.208-0.576-5.852 2.186-9.76 5.959-11.616 11.216-4.686 13.274 5.215 32.351 9.747 40.022-0.164 1.434-0.124 2.876 0.167 4.269 0.791 3.781 4.143 10.188 17.713 10.63 16.722 0.545 22.231-6.685 22.858-11.04 0.339-2.355-0.765-3.736-2.013-4.06-1.087-0.281-4.48-0.328-12.545-0.372-7.308-0.041-19.064-0.107-22.618-0.773 1-3.952 3.772-7.497 6.152-8.631 1.762-0.844 2.623-0.134 3.116 0.473 0.646 0.792 1.375 0.934 1.863 0.939 1.077-0.021 1.734-0.803 2.146-1.342 0.404 0.174 0.913 0.562 1.444 0.966 1.293 0.984 3.066 2.335 5.648 2.366 1.396-0.012 2.551-0.383 3.365-1.188 1.332-1.316 1.442-3.296 1.442-5.379 0-2.181-0.385-4.188-0.757-6.127l-0.197-1.041c-0.765-4.127-1.848-8.546-3.217-13.135a140 140 0 0 0-0.901-2.862c-0.438-1.356-0.891-2.758-1.247-4.074-0.231-0.85-0.744-3.052-1.118-4.66-0.191-0.825-0.347-1.49-0.408-1.738a1.641 1.641 0 0 0-3.184 0.798c0.06 0.241 0.21 0.885 0.396 1.684 0.381 1.633 0.9 3.869 1.147 4.776 0.377 1.39 0.841 2.83 1.29 4.222 0.304 0.939 0.606 1.877 0.879 2.794 1.338 4.477 2.395 8.78 3.136 12.792l0.201 1.062c0.358 1.872 0.699 3.64 0.699 5.508 0 0.901 0 2.581-0.468 3.044-0.209 0.205-0.678 0.239-1.019 0.239-1.496-0.018-2.566-0.832-3.7-1.694-1.138-0.868-2.422-1.863-4.105-1.72-0.722 0.055-1.21 0.481-1.562 0.894-1.704-1.469-3.945-1.686-6.301-0.563-2.839 1.354-5.578 4.587-7.119 8.388-4.623-8.42-11.58-23.769-7.835-34.374 1.539-4.357 4.702-7.378 9.669-9.233 0.633-0.237 2.413-0.813 3.896-0.457-2.427 2.45-5.893 8.44-5.435 12.451 0.201 1.769 1.147 3.108 2.663 3.77 2.727 1.193 6.862 0.501 8.436-2.391 0.894-1.645 1.177-4.261 0.842-7.779-0.061-0.642-0.354-3.16-1.345-5.357 3.003-1.086 7.366-1.424 12.663-0.952 0.985 0.088 2.072 0.639 3.16 1.577q-0.15 0.211-0.297 0.43c-2.025 3.06-2.879 7.052-2.12 9.932 0.317 1.204 1.155 2.146 2.425 2.726 2.276 1.041 5.57 0.713 7.439-0.207 0.839-0.411 1.736-1.451 1.249-4.067-0.438-2.36-1.95-5.873-4.165-8.749 0.525-0.341 1.066-0.557 1.606-0.634 3.628-0.533 6.886 3.368 8.464 6.87q0.01 0.025 0.021 0.05c0.19 0.426 0.356 0.847 0.494 1.253 2.872 8.457 13.629 53.281-4.496 62.112m-8.254-67.05c2.244 3.174 3.165 6.318 3.199 7.445-1.197 0.403-3.087 0.494-4.19-0.011-0.525-0.24-0.593-0.493-0.613-0.576-0.498-1.885 0.133-4.781 1.502-7.002z m-20.567 8.275c-0.652 1.199-2.913 1.53-4.238 0.952-0.32-0.14-0.628-0.374-0.715-1.133-0.313-2.747 2.631-7.936 4.467-9.747 0.484 1.192 0.819 2.716 0.944 4.03 0.257 2.694 0.085 4.899-0.458 5.898M39.57 70.049c3.103 0.547 9.463 0.748 22.979 0.823 4.6 0.025 9.753 0.055 11.355 0.212 0.026 0.468-0.139 1.45-0.95 2.659-1.315 1.952-5.758 6.445-18.579 6.037-8.518-0.276-13.568-3.049-14.608-8.021a9.7 9.7 0 0 1-0.197-1.71" fill="#f27d2c" data-fill-palette-color="accent"></path></svg></g></svg></g></svg></g><defs></defs></svg>